<mxfile host="65bd71144e">
    <diagram name="Page-1" id="0">
        <mxGraphModel dx="1342" dy="517" grid="0" gridSize="10" guides="1" tooltips="1" connect="1" arrows="1" fold="1" page="0" pageScale="1" pageWidth="850" pageHeight="1100" background="#FFFFFF" math="0" shadow="0">
            <root>
                <mxCell id="0"/>
                <mxCell id="1" parent="0"/>
                <mxCell id="2" value="import os" style="shape=ellipse;fillColor=#FF0000;strokeColor=#000000;rounded=1;" parent="1" vertex="1">
                    <mxGeometry x="10" y="110" width="80" height="40" as="geometry"/>
                </mxCell>
                <mxCell id="3" value="analize" style="shape=ellipse;fillColor=#6666FF;strokeColor=#000000;rounded=1;" parent="1" vertex="1">
                    <mxGeometry x="10" y="250" width="80" height="40" as="geometry"/>
                </mxCell>
                <mxCell id="4" value="import sys" style="shape=ellipse;fillColor=#FF0000;strokeColor=#000000;rounded=1;" parent="1" vertex="1">
                    <mxGeometry x="-75" y="172" width="80" height="40" as="geometry"/>
                </mxCell>
                <mxCell id="5" value="import time" style="shape=ellipse;fillColor=#FF0000;strokeColor=#000000;rounded=1;" parent="1" vertex="1">
                    <mxGeometry x="94" y="172" width="80" height="40" as="geometry"/>
                </mxCell>
                <mxCell id="28" style="edgeStyle=none;html=1;strokeColor=#000000;" parent="1" source="6" target="5" edge="1">
                    <mxGeometry relative="1" as="geometry"/>
                </mxCell>
                <mxCell id="6" value="import ollama" style="shape=ellipse;fillColor=#FF0000;strokeColor=#000000;rounded=1;" parent="1" vertex="1">
                    <mxGeometry x="230" y="270" width="80" height="40" as="geometry"/>
                </mxCell>
                <mxCell id="7" value="import pygraphviz as pgv" style="shape=ellipse;fillColor=#FF0000;strokeColor=#000000;rounded=1;" parent="1" vertex="1">
                    <mxGeometry x="-218" y="212" width="80" height="40" as="geometry"/>
                </mxCell>
                <mxCell id="8" value="generate_drawio" style="shape=ellipse;fillColor=#008a00;strokeColor=#005700;rounded=1;fontColor=#ffffff;" parent="1" vertex="1">
                    <mxGeometry x="-251" y="300" width="102" height="59" as="geometry"/>
                </mxCell>
                <mxCell id="9" value="xml.dom.minidomÂ " style="shape=ellipse;fillColor=#FF0000;strokeColor=#000000;rounded=1;" parent="1" vertex="1">
                    <mxGeometry x="-356" y="336" width="80" height="60" as="geometry"/>
                </mxCell>
                <mxCell id="10" value="MODEL1" style="shape=ellipse;fillColor=#FF0000;strokeColor=#000000;rounded=1;" parent="1" vertex="1">
                    <mxGeometry x="131" y="346" width="80" height="40" as="geometry"/>
                </mxCell>
                <mxCell id="11" value="MODEL2" style="shape=ellipse;fillColor=#FF0000;strokeColor=#000000;rounded=1;" parent="1" vertex="1">
                    <mxGeometry x="110" y="305" width="80" height="40" as="geometry"/>
                </mxCell>
                <mxCell id="12" value="PROMPT" style="shape=ellipse;fillColor=#FF0000;strokeColor=#000000;rounded=1;" parent="1" vertex="1">
                    <mxGeometry x="163" y="392" width="80" height="40" as="geometry"/>
                </mxCell>
                <mxCell id="13" value="save_results" style="shape=ellipse;fillColor=#FF0000;strokeColor=#000000;rounded=1;" parent="1" vertex="1">
                    <mxGeometry x="-122" y="284" width="80" height="40" as="geometry"/>
                </mxCell>
                <mxCell id="14" value="main" style="shape=ellipse;fillColor=#60a917;strokeColor=#2D7600;rounded=1;fontColor=#ffffff;" parent="1" vertex="1">
                    <mxGeometry x="-142" y="388" width="90" height="90" as="geometry"/>
                </mxCell>
                <mxCell id="15" value="" style="edgeStyle=orthogonalEdgeStyle;rounded=1;orthogonalLoop=1;jettySize=auto;html=1;strokeColor=#000000;" parent="1" source="2" target="3" edge="1">
                    <mxGeometry relative="1" as="geometry"/>
                </mxCell>
                <mxCell id="16" value="" style="edgeStyle=orthogonalEdgeStyle;rounded=1;orthogonalLoop=1;jettySize=auto;html=1;strokeColor=#000000;" parent="1" source="3" target="13" edge="1">
                    <mxGeometry relative="1" as="geometry"/>
                </mxCell>
                <mxCell id="17" value="" style="edgeStyle=orthogonalEdgeStyle;rounded=1;orthogonalLoop=1;jettySize=auto;html=1;strokeColor=#000000;" parent="1" source="4" target="3" edge="1">
                    <mxGeometry relative="1" as="geometry"/>
                </mxCell>
                <mxCell id="18" value="" style="edgeStyle=orthogonalEdgeStyle;rounded=1;orthogonalLoop=1;jettySize=auto;html=1;strokeColor=#000000;" parent="1" source="5" target="3" edge="1">
                    <mxGeometry relative="1" as="geometry"/>
                </mxCell>
                <mxCell id="19" value="" style="edgeStyle=orthogonalEdgeStyle;rounded=1;orthogonalLoop=1;jettySize=auto;html=1;strokeColor=#000000;" parent="1" source="6" target="3" edge="1">
                    <mxGeometry relative="1" as="geometry"/>
                </mxCell>
                <mxCell id="20" value="" style="edgeStyle=orthogonalEdgeStyle;rounded=1;orthogonalLoop=1;jettySize=auto;html=1;strokeColor=#000000;" parent="1" source="7" target="8" edge="1">
                    <mxGeometry relative="1" as="geometry"/>
                </mxCell>
                <mxCell id="21" value="" style="edgeStyle=orthogonalEdgeStyle;rounded=1;orthogonalLoop=1;jettySize=auto;html=1;strokeColor=#000000;" parent="1" source="9" target="8" edge="1">
                    <mxGeometry relative="1" as="geometry"/>
                </mxCell>
                <mxCell id="22" value="" style="edgeStyle=orthogonalEdgeStyle;rounded=1;orthogonalLoop=1;jettySize=auto;html=1;strokeColor=#000000;" parent="1" source="10" target="3" edge="1">
                    <mxGeometry relative="1" as="geometry"/>
                </mxCell>
                <mxCell id="23" value="" style="edgeStyle=orthogonalEdgeStyle;rounded=1;orthogonalLoop=1;jettySize=auto;html=1;strokeColor=#000000;" parent="1" source="11" target="3" edge="1">
                    <mxGeometry relative="1" as="geometry"/>
                </mxCell>
                <mxCell id="24" value="" style="edgeStyle=orthogonalEdgeStyle;rounded=1;orthogonalLoop=1;jettySize=auto;html=1;strokeColor=#000000;" parent="1" source="12" target="3" edge="1">
                    <mxGeometry relative="1" as="geometry"/>
                </mxCell>
                <mxCell id="25" value="" style="edgeStyle=orthogonalEdgeStyle;rounded=1;orthogonalLoop=1;jettySize=auto;html=1;strokeColor=#000000;" parent="1" source="13" target="8" edge="1">
                    <mxGeometry relative="1" as="geometry"/>
                </mxCell>
                <mxCell id="26" value="" style="edgeStyle=orthogonalEdgeStyle;rounded=1;orthogonalLoop=1;jettySize=auto;html=1;strokeColor=#000000;entryX=0.11;entryY=0.79;entryDx=0;entryDy=0;entryPerimeter=0;" parent="1" source="14" target="3" edge="1">
                    <mxGeometry relative="1" as="geometry">
                        <mxPoint x="-79" y="283" as="targetPoint"/>
                    </mxGeometry>
                </mxCell>
                <mxCell id="27" value="" style="edgeStyle=orthogonalEdgeStyle;rounded=1;orthogonalLoop=1;jettySize=auto;html=1;strokeColor=#000000;" parent="1" source="14" target="8" edge="1">
                    <mxGeometry relative="1" as="geometry"/>
                </mxCell>
            </root>
        </mxGraphModel>
    </diagram>
</mxfile>